<svg width="512" height="512" xmlns="http://www.w3.org/2000/svg"><path fill="none" d="M-1-1h582v402H-1z"/><g><path fill="#f0f5f7" d="M431.94 247.701c-4.29-70.84-63.086-126.969-135.008-126.969-58 0-107.47 36.512-126.696 87.805-49.949.602-90.257 41.258-90.257 91.348 0 50.469 40.91 91.383 91.378 91.383h258.075c39.66 0 71.812-32.153 71.812-71.817 0-38.82-30.808-70.426-69.305-71.75zm0 0"/><path fill="#dde9ed" d="M501.248 319.451c0 39.66-32.156 71.817-71.82 71.817h-5.563c5.207-9.938 8.153-21.258 8.153-33.254 0-38.817-30.805-70.426-69.305-71.754-4.285-70.836-63.09-126.973-135.012-126.973-9.695 0-19.152 1.02-28.265 2.961 24.601-25.586 59.187-41.512 97.496-41.512 71.918 0 130.722 56.125 135.011 126.973 38.5 1.312 69.305 32.922 69.305 71.742zm0 0"/><path fill="#f0f5f7" d="M396.135 239.787a7.731 7.731 0 01-7.508-5.926 93.332 93.332 0 00-5.09-15.242 7.732 7.732 0 014.024-10.16c3.921-1.695 8.468.105 10.16 4.023a108.796 108.796 0 015.93 17.77 7.72 7.72 0 01-5.704 9.316 7.82 7.82 0 01-1.812.22zm0 0M370.58 193.139a7.707 7.707 0 01-5.574-2.375c-17.996-18.75-42.172-29.078-68.07-29.078a7.723 7.723 0 01-7.727-7.723 7.724 7.724 0 017.727-7.727c30.148 0 58.28 12.012 79.218 33.828a7.73 7.73 0 01-.226 10.926 7.705 7.705 0 01-5.348 2.149zm0 0M60.299 288.63c3.066-50.644 45.101-90.773 96.52-90.773 41.464 0 76.831 26.102 90.574 62.77 35.71.434 64.53 29.5 64.53 65.309 0 36.082-29.25 65.332-65.331 65.332h-184.5c-28.356 0-51.34-22.989-51.34-51.344 0-27.754 22.023-50.348 49.547-51.293zm0 0"/><path fill="#dde9ed" d="M311.924 325.943c0 35.77-28.762 64.825-64.43 65.309 10.695-11.637 17.215-27.14 17.215-44.176 0-35.808-28.813-64.879-64.531-65.312-13.746-36.664-49.106-62.77-90.578-62.77-4.903 0-9.711.367-14.422 1.07 16.73-13.87 38.207-22.203 61.636-22.203 41.473 0 76.832 26.094 90.579 62.77 35.718.433 64.53 29.492 64.53 65.312zm0 0"/></g></svg>