<svg width="512" height="512" xmlns="http://www.w3.org/2000/svg"><path fill="none" d="M-1-1h582v402H-1z"/><g><path fill="#f0f5f7" d="M421.904 192.48c-3.222-53.253-47.422-95.445-101.484-95.445-43.602 0-80.79 27.445-95.238 66-37.547.453-67.848 31.016-67.848 68.672 0 37.938 30.754 68.691 68.687 68.691h193.997c29.816 0 53.984-24.171 53.984-53.984 0-29.18-23.156-52.937-52.098-53.934zm0 0"/><path fill="#dde9ed" d="M474.006 246.414c0 29.813-24.172 53.984-53.988 53.984h-4.18a53.729 53.729 0 006.129-24.996c0-29.18-23.156-52.941-52.098-53.941-3.223-53.246-47.426-95.445-101.488-95.445-7.293 0-14.399.77-21.25 2.226 18.496-19.234 44.488-31.203 73.289-31.203 54.062 0 98.266 42.188 101.488 95.445 28.942.989 52.098 24.746 52.098 53.93zm0 0"/><path fill="#f0f5f7" d="M394.986 188.445a7.727 7.727 0 01-7.504-5.922 68.471 68.471 0 00-3.718-11.144 7.727 7.727 0 014.02-10.16c3.917-1.696 8.468.105 10.16 4.023a83.947 83.947 0 014.562 13.672c1 4.148-1.559 8.32-5.707 9.316a7.788 7.788 0 01-1.813.215zm0 0M375.78 153.383a7.696 7.696 0 01-5.575-2.38c-13.16-13.71-30.844-21.265-49.785-21.265a7.725 7.725 0 110-15.449c23.191 0 44.832 9.238 60.934 26.02 2.957 3.074 2.855 7.968-.223 10.921a7.708 7.708 0 01-5.352 2.153zm0 0M75.236 223.246c2.305-38.074 33.907-68.238 72.555-68.238 31.172 0 57.758 19.625 68.09 47.187 26.84.325 48.504 22.172 48.504 49.094 0 27.121-21.989 49.11-49.11 49.11H76.588c-21.317 0-38.594-17.282-38.594-38.594-.004-20.864 16.555-37.848 37.242-38.559zm0 0"/><path fill="#dde9ed" d="M264.385 251.293c0 26.887-21.621 48.73-48.434 49.094 8.04-8.746 12.942-20.403 12.942-33.211 0-26.914-21.66-48.766-48.508-49.094-10.332-27.559-36.914-47.184-68.09-47.184-3.684 0-7.3.278-10.84.805 12.574-10.426 28.719-16.691 46.332-16.691 31.176 0 57.758 19.617 68.09 47.187 26.848.324 48.508 22.168 48.508 49.094zm0 0"/><path fill="#a4d5dd" d="M455.326 334.93H138.9c-4.265 0-7.726-3.461-7.726-7.727s3.46-7.726 7.726-7.726h316.426c4.27 0 7.727 3.46 7.727 7.726s-3.457 7.727-7.727 7.727zm0 0M110.74 334.93H56.67c-4.27 0-7.727-3.461-7.727-7.727s3.457-7.726 7.727-7.726h54.07c4.27 0 7.727 3.46 7.727 7.726s-3.457 7.727-7.727 7.727zm0 0M455.326 375.45h-47.89a7.726 7.726 0 110-15.453h47.89a7.724 7.724 0 017.727 7.726 7.726 7.726 0 01-7.727 7.726zm0 0M380.85 375.45H56.67a7.726 7.726 0 01-7.727-7.727 7.724 7.724 0 017.727-7.727h324.18a7.723 7.723 0 017.722 7.727 7.725 7.725 0 01-7.722 7.726zm0 0M455.326 414.965h-308a7.725 7.725 0 110-15.45h308a7.724 7.724 0 017.727 7.727 7.723 7.723 0 01-7.727 7.723zm0 0M125.854 414.965h-10.989a7.723 7.723 0 01-7.726-7.723 7.724 7.724 0 017.726-7.726h10.989a7.725 7.725 0 110 15.45zm0 0M91.451 414.965H56.67a7.723 7.723 0 01-7.727-7.723 7.724 7.724 0 017.727-7.726H91.45a7.725 7.725 0 110 15.45zm0 0"/></g></svg>