<svg width="512" height="512" xmlns="http://www.w3.org/2000/svg"><path fill="none" d="M-1-1h582v402H-1z"/><g><path fill="#f0f5f7" d="M432.824 183.075c-4.289-70.84-63.086-126.968-135.008-126.968-58 0-107.468 36.511-126.695 87.804-49.949.602-90.258 41.258-90.258 91.348 0 50.469 40.91 91.383 91.38 91.383h258.073c39.66 0 71.813-32.153 71.813-71.817 0-38.82-30.809-70.425-69.305-71.75zm0 0"/><path fill="#dde9ed" d="M502.133 254.825c0 39.66-32.156 71.817-71.82 71.817h-5.563c5.207-9.938 8.152-21.258 8.152-33.254 0-38.817-30.804-70.426-69.304-71.754-4.285-70.836-63.09-126.973-135.012-126.973-9.695 0-19.152 1.02-28.266 2.961 24.602-25.586 59.188-41.512 97.496-41.512 71.918 0 130.723 56.125 135.012 126.973 38.5 1.313 69.305 32.922 69.305 71.742zm0 0"/><path fill="#f0f5f7" d="M397.02 175.161a7.731 7.731 0 01-7.508-5.926 93.332 93.332 0 00-5.09-15.242 7.732 7.732 0 014.023-10.16c3.922-1.695 8.47.106 10.16 4.024a108.796 108.796 0 015.93 17.77 7.72 7.72 0 01-5.703 9.316 7.82 7.82 0 01-1.812.218zm0 0M371.465 128.513a7.707 7.707 0 01-5.574-2.375c-17.996-18.75-42.172-29.078-68.07-29.078a7.723 7.723 0 01-7.727-7.723 7.724 7.724 0 017.726-7.727c30.149 0 58.282 12.012 79.22 33.829a7.73 7.73 0 01-.227 10.925 7.705 7.705 0 01-5.348 2.149zm0 0M61.184 224.005c3.066-50.645 45.101-90.773 96.52-90.773 41.464 0 76.831 26.101 90.573 62.77 35.711.433 64.532 29.5 64.532 65.308 0 36.082-29.25 65.332-65.332 65.332h-184.5c-28.356 0-51.34-22.989-51.34-51.344 0-27.754 22.023-50.348 49.547-51.293zm0 0"/><path fill="#dde9ed" d="M312.809 261.318c0 35.77-28.762 64.824-64.43 65.308 10.695-11.637 17.215-27.14 17.215-44.176 0-35.808-28.813-64.879-64.531-65.312-13.747-36.664-49.106-62.77-90.579-62.77-4.902 0-9.71.367-14.421 1.07 16.73-13.87 38.207-22.203 61.636-22.203 41.473 0 76.832 26.094 90.578 62.77 35.72.434 64.532 29.492 64.532 65.313zm0 0"/><path stroke-width="null" fill="#60daff" stroke="null" d="M138.394 381.06a7.334 7.334 0 01-.026-14.666h.156a7.33 7.33 0 017.328 7.303 7.332 7.332 0 01-7.302 7.362h-.156zm0 0M92.034 381.06a7.334 7.334 0 01-.026-14.666h.156a7.33 7.33 0 017.328 7.307 7.331 7.331 0 01-7.303 7.358h-.155zm0 0M100.975 418.475a7.327 7.327 0 01-7.329-7.303 7.335 7.335 0 017.303-7.362h.156a7.334 7.334 0 01.03 14.665l-.13.003c-.011-.003-.019-.003-.03-.003zm0 0M54.615 418.475a7.327 7.327 0 01-7.329-7.303 7.337 7.337 0 017.303-7.362h.13c4.037-.034 7.343 3.258 7.358 7.306a7.331 7.331 0 01-7.303 7.359l-.13.003c-.007-.003-.018-.003-.03-.003zm0 0M63.56 455.893a7.333 7.333 0 01-.026-14.665h.156a7.327 7.327 0 017.328 7.303 7.335 7.335 0 01-7.302 7.362h-.156zm0 0M17.2 455.893a7.333 7.333 0 01-.03-14.665h.156a7.33 7.33 0 017.332 7.303 7.335 7.335 0 01-7.303 7.362H17.2zm0 0M230.394 381.06a7.334 7.334 0 01-.026-14.666h.156a7.33 7.33 0 017.328 7.303 7.332 7.332 0 01-7.302 7.362h-.156zm0 0M184.034 381.06a7.334 7.334 0 01-.026-14.666h.156a7.33 7.33 0 017.328 7.307 7.331 7.331 0 01-7.303 7.358h-.155zm0 0M192.975 418.475a7.327 7.327 0 01-7.329-7.303 7.335 7.335 0 017.303-7.362h.156a7.334 7.334 0 01.03 14.665l-.13.003c-.011-.003-.019-.003-.03-.003zm0 0M146.615 418.475a7.327 7.327 0 01-7.329-7.303 7.337 7.337 0 017.303-7.362h.13c4.037-.034 7.343 3.258 7.358 7.306a7.331 7.331 0 01-7.303 7.359l-.13.003c-.007-.003-.018-.003-.03-.003zm0 0M155.56 455.893a7.333 7.333 0 01-.026-14.665h.156a7.327 7.327 0 017.328 7.303 7.335 7.335 0 01-7.302 7.362h-.156zm0 0M109.2 455.893a7.333 7.333 0 01-.03-14.665h.156a7.33 7.33 0 017.332 7.303 7.335 7.335 0 01-7.303 7.362h-.155zm0 0M322.394 381.06a7.334 7.334 0 01-.026-14.666h.156a7.33 7.33 0 017.328 7.303 7.332 7.332 0 01-7.302 7.362h-.156zm0 0M276.034 381.06a7.334 7.334 0 01-.026-14.666h.156a7.33 7.33 0 017.328 7.307 7.331 7.331 0 01-7.303 7.358h-.155zm0 0M284.975 418.475a7.327 7.327 0 01-7.329-7.303 7.335 7.335 0 017.303-7.362h.156a7.334 7.334 0 01.03 14.665l-.13.003c-.011-.003-.019-.003-.03-.003zm0 0M238.615 418.475a7.327 7.327 0 01-7.329-7.303 7.337 7.337 0 017.303-7.362h.13c4.037-.034 7.343 3.258 7.358 7.306a7.331 7.331 0 01-7.303 7.359l-.13.003c-.007-.003-.018-.003-.03-.003zm0 0M247.56 455.893a7.333 7.333 0 01-.026-14.665h.156a7.327 7.327 0 017.328 7.303 7.335 7.335 0 01-7.302 7.362h-.156zm0 0M201.2 455.893a7.333 7.333 0 01-.03-14.665h.156a7.33 7.33 0 017.332 7.303 7.335 7.335 0 01-7.303 7.362h-.155zm0 0M415.394 381.06a7.334 7.334 0 01-.026-14.666h.156a7.33 7.33 0 017.328 7.303 7.332 7.332 0 01-7.302 7.362h-.156zm0 0M369.034 381.06a7.334 7.334 0 01-.026-14.666h.156a7.33 7.33 0 017.328 7.307 7.331 7.331 0 01-7.303 7.358h-.155zm0 0M377.975 418.475a7.327 7.327 0 01-7.329-7.303 7.335 7.335 0 017.303-7.362h.156a7.334 7.334 0 01.03 14.665l-.13.003c-.011-.003-.019-.003-.03-.003zm0 0M331.615 418.475a7.327 7.327 0 01-7.329-7.303 7.337 7.337 0 017.303-7.362h.13c4.037-.034 7.343 3.258 7.358 7.306a7.331 7.331 0 01-7.303 7.359l-.13.003c-.007-.003-.018-.003-.03-.003zm0 0M340.56 455.893a7.333 7.333 0 01-.026-14.665h.156a7.327 7.327 0 017.328 7.303 7.335 7.335 0 01-7.302 7.362h-.156zm0 0M294.2 455.893a7.333 7.333 0 01-.03-14.665h.156a7.33 7.33 0 017.332 7.303 7.335 7.335 0 01-7.303 7.362h-.155zm0 0"/></g></svg>