<svg width="512" height="512" xmlns="http://www.w3.org/2000/svg"><path fill="none" d="M-1-1h582v402H-1z"/><g><path fill="#f6cb43" d="M307.176 190.344c0 64.523-52.309 116.832-116.832 116.832S73.516 254.867 73.516 190.344 125.82 73.516 190.344 73.516s116.832 52.304 116.832 116.828zm0 0"/><path fill="#fab03c" d="M307.172 190.34c0 64.527-52.305 116.832-116.828 116.832-56.594 0-103.793-40.238-114.531-93.668 7.492 1.508 15.23 2.3 23.164 2.3 64.527 0 116.828-52.304 116.828-116.831 0-7.934-.79-15.672-2.301-23.16 53.434 10.746 93.668 57.945 93.668 114.527zm0 0"/><path fill="#f0f5f7" d="M446.918 283.945c-4.023-66.52-59.238-119.226-126.77-119.226-54.464 0-100.914 34.285-118.964 82.445-46.903.566-84.754 38.742-84.754 85.781 0 47.387 38.418 85.805 85.804 85.805h242.329c37.242 0 67.433-30.191 67.433-67.434 0-36.453-28.93-66.128-65.078-67.37zm0 0"/><path fill="#dde9ed" d="M512 351.316c0 37.243-30.195 67.438-67.438 67.438h-5.222c4.887-9.336 7.656-19.965 7.656-31.227 0-36.453-28.926-66.132-65.078-67.379-4.027-66.515-59.242-119.226-126.773-119.226-9.11 0-17.989.96-26.543 2.781 23.101-24.027 55.574-38.98 91.546-38.98 67.532 0 122.75 52.699 126.774 119.226C483.074 285.184 512 314.863 512 351.316zm0 0"/><path fill="#f0f5f7" d="M413.297 276.867a7.618 7.618 0 01-7.395-5.836 87.253 87.253 0 00-4.757-14.258 7.614 7.614 0 013.964-10.007 7.614 7.614 0 0110.008 3.964 102.714 102.714 0 015.59 16.743c.98 4.09-1.535 8.199-5.621 9.18-.602.144-1.2.214-1.79.214zm0 0M389.305 233.066c-2 0-4-.785-5.493-2.343-16.832-17.536-39.44-27.192-63.664-27.192a7.612 7.612 0 110-15.222c28.407 0 54.918 11.32 74.645 31.875a7.61 7.61 0 01-.223 10.761 7.584 7.584 0 01-5.265 2.121zm0 0M97.953 322.375c2.879-47.559 42.352-85.238 90.629-85.238 38.938 0 72.145 24.511 85.05 58.941 33.532.406 60.59 27.7 60.59 61.324 0 33.88-27.46 61.344-61.34 61.344H99.638c-26.625 0-48.211-21.582-48.211-48.207 0-26.059 20.683-47.277 46.527-48.164zm0 0"/><path fill="#dde9ed" d="M334.227 357.41c0 33.586-27.008 60.871-60.5 61.328 10.039-10.93 16.164-25.488 16.164-41.484 0-33.621-27.059-60.918-60.598-61.328-12.902-34.426-46.11-58.942-85.05-58.942-4.602 0-9.122.348-13.54 1.008 15.707-13.023 35.875-20.851 57.875-20.851 38.942 0 72.149 24.504 85.05 58.945 33.54.406 60.599 27.691 60.599 61.324zm0 0"/></g></svg>