<svg width="512" height="511" xmlns="http://www.w3.org/2000/svg"><path fill="none" d="M-1-1h582v402H-1z"/><g><path fill="#a0ecff" d="M130.226 368.57a7.613 7.613 0 01-5.383-12.996l58.668-58.664a7.613 7.613 0 0110.766 0 7.615 7.615 0 010 10.762l-58.668 58.668a7.606 7.606 0 01-5.383 2.23zm0 0M109.16 463.922a7.613 7.613 0 01-5.383-12.996l19.027-19.024c2.973-2.972 7.79-2.972 10.762 0s2.972 7.79 0 10.766l-19.024 19.023a7.593 7.593 0 01-5.382 2.23zm0 0M153.765 419.313a7.602 7.602 0 01-5.383-2.227 7.613 7.613 0 010-10.766l59.414-59.414a7.613 7.613 0 0110.766 10.766l-59.414 59.414a7.595 7.595 0 01-5.383 2.226zm0 0"/><g fill="#a0ecff"><path d="M7.613 419.684a7.613 7.613 0 01-5.383-12.996l134.223-134.223c2.972-2.973 7.792-2.973 10.765 0s2.973 7.793 0 10.762L12.992 417.453a7.59 7.59 0 01-5.38 2.23zm0 0M24.058 369.727a7.586 7.586 0 01-5.379-2.227 7.606 7.606 0 010-10.766l17.156-17.16a7.62 7.62 0 0110.766 0 7.613 7.613 0 010 10.766L29.44 367.5a7.589 7.589 0 01-5.383 2.227zm0 0M57.69 446.984a7.589 7.589 0 01-5.382-2.226 7.613 7.613 0 010-10.766l17.156-17.156a7.613 7.613 0 0110.766 0 7.608 7.608 0 010 10.762l-17.156 17.16a7.595 7.595 0 01-5.383 2.226zm0 0M351.902 419.684a7.613 7.613 0 01-5.383-12.996l134.223-134.223a7.613 7.613 0 0110.765 0 7.608 7.608 0 010 10.762L357.285 417.453a7.606 7.606 0 01-5.383 2.23zm0 0"/></g><path fill="#a0ecff" d="M307.765 403.313a7.602 7.602 0 01-5.383-2.227 7.613 7.613 0 010-10.766l59.414-59.414a7.613 7.613 0 0110.766 10.766l-59.414 59.414a7.595 7.595 0 01-5.383 2.226zm0 0M263.16 447.922a7.613 7.613 0 01-5.383-12.996l19.027-19.024c2.973-2.972 7.79-2.972 10.762 0s2.972 7.79 0 10.766l-19.024 19.023a7.593 7.593 0 01-5.382 2.23zm0 0M284.226 352.57a7.613 7.613 0 01-5.383-12.996l58.668-58.664a7.613 7.613 0 0110.766 0 7.615 7.615 0 010 10.762l-58.668 58.668a7.606 7.606 0 01-5.383 2.23zm0 0"/><path fill="#a09d9c" d="M444.785 168.414c-4.157-68.7-61.18-123.133-130.926-123.133-56.25 0-104.223 35.407-122.864 85.149-48.44.586-87.53 40.011-87.53 88.59 0 48.94 39.675 88.617 88.616 88.617h250.274c38.46 0 69.64-31.18 69.64-69.64 0-37.65-29.875-68.302-67.21-69.583zm0 0"/><path fill="#82807f" d="M512 237.992c0 38.461-31.188 69.649-69.65 69.649h-5.394c5.047-9.641 7.907-20.618 7.907-32.25 0-37.649-29.875-68.301-67.211-69.586-4.157-68.696-61.18-123.133-130.93-123.133a131.4 131.4 0 00-27.41 2.871c23.86-24.816 57.394-40.258 94.547-40.258 69.746 0 126.773 54.426 130.93 123.133 37.335 1.273 67.21 31.93 67.21 69.574zm0 0"/><path fill="#a09d9c" d="M410.062 160.855a7.618 7.618 0 01-7.395-5.835 90.598 90.598 0 00-4.925-14.766 7.609 7.609 0 013.96-10.008c3.856-1.672 8.336.106 10.008 3.961a105.602 105.602 0 015.758 17.254 7.613 7.613 0 01-5.621 9.18 7.585 7.585 0 01-1.785.214zm0 0M385.28 115.617c-2 0-4-.781-5.492-2.34-17.43-18.16-40.843-28.16-65.93-28.16a7.612 7.612 0 010-15.222c29.27 0 56.587 11.664 76.91 32.84a7.61 7.61 0 01-.218 10.761 7.583 7.583 0 01-5.27 2.121zm0 0M84.378 208.105c2.973-49.117 43.739-88.03 93.602-88.03 40.215 0 74.512 25.316 87.84 60.874 34.629.418 62.574 28.606 62.574 63.336 0 34.988-28.363 63.352-63.352 63.352H86.117c-27.497 0-49.79-22.29-49.79-49.79 0-26.913 21.36-48.824 48.051-49.742zm0 0"/><path fill="#82807f" d="M328.398 244.29c0 34.687-27.895 62.862-62.485 63.335 10.372-11.285 16.696-26.32 16.696-42.844 0-34.722-27.942-62.914-62.582-63.336-13.328-35.554-47.621-60.875-87.84-60.875-4.75 0-9.418.36-13.984 1.04 16.226-13.45 37.05-21.532 59.773-21.532 40.219 0 74.512 25.309 87.84 60.875 34.637.418 62.582 28.598 62.582 63.336zm0 0"/><path fill="#a0ecff" d="M328.453 447.922h-.145a7.615 7.615 0 01.035-15.227h.145a7.615 7.615 0 01-.035 15.227zm0 0M419.066 396.328H418.925a7.612 7.612 0 01.035-15.223H419.101a7.612 7.612 0 017.578 7.645c-.023 4.191-3.426 7.578-7.613 7.578zm0 0M39.242 465.719h-.106a7.611 7.611 0 110-15.223h.106a7.609 7.609 0 017.609 7.61 7.61 7.61 0 01-7.61 7.613zm0 0M193.765 445.313a7.602 7.602 0 01-5.383-2.227 7.613 7.613 0 010-10.766l59.414-59.414a7.613 7.613 0 0110.766 10.766l-59.414 59.414a7.595 7.595 0 01-5.383 2.226zm0 0"/></g></svg>