<svg width="512" height="511" xmlns="http://www.w3.org/2000/svg"><path fill="none" d="M-1-1h514v513H-1z"/><g><path d="M444.785 168.414c-4.157-68.7-61.18-123.133-130.926-123.133-56.25 0-104.223 35.407-122.864 85.149-48.44.586-87.53 40.011-87.53 88.59 0 48.94 39.675 88.617 88.616 88.617h250.274c38.46 0 69.64-31.18 69.64-69.64 0-37.65-29.875-68.302-67.21-69.583zm0 0" fill="#a09d9c"/><path d="M512 237.992c0 38.461-31.188 69.649-69.649 69.649h-5.395c5.047-9.641 7.907-20.618 7.907-32.25 0-37.649-29.875-68.301-67.211-69.586-4.157-68.696-61.18-123.133-130.93-123.133a131.4 131.4 0 00-27.41 2.871c23.86-24.816 57.394-40.258 94.547-40.258 69.746 0 126.773 54.426 130.93 123.133 37.335 1.273 67.21 31.93 67.21 69.574zm0 0" fill="#82807f"/><path d="M410.062 160.855a7.618 7.618 0 01-7.395-5.835 90.598 90.598 0 00-4.925-14.766 7.609 7.609 0 013.96-10.008c3.856-1.672 8.336.106 10.008 3.961a105.602 105.602 0 015.758 17.254 7.613 7.613 0 01-5.62 9.18 7.585 7.585 0 01-1.786.214zm0 0M385.28 115.617c-2 0-4-.781-5.492-2.34-17.43-18.16-40.843-28.16-65.93-28.16a7.612 7.612 0 010-15.222c29.27 0 56.587 11.664 76.91 32.84a7.61 7.61 0 01-.218 10.761 7.583 7.583 0 01-5.27 2.121zm0 0M84.378 208.105c2.973-49.117 43.739-88.03 93.602-88.03 40.215 0 74.512 25.316 87.84 60.874 34.629.418 62.574 28.606 62.574 63.336 0 34.988-28.363 63.352-63.352 63.352H86.117c-27.497 0-49.79-22.29-49.79-49.79 0-26.913 21.36-48.824 48.051-49.742zm0 0" fill="#a09d9c"/><path d="M328.398 244.29c0 34.687-27.895 62.862-62.485 63.335 10.372-11.285 16.696-26.32 16.696-42.844 0-34.722-27.942-62.914-62.582-63.336-13.328-35.554-47.621-60.875-87.84-60.875-4.75 0-9.418.36-13.984 1.04 16.226-13.45 37.05-21.532 59.773-21.532 40.219 0 74.512 25.309 87.84 60.875 34.637.418 62.582 28.598 62.582 63.336zm0 0" fill="#82807f"/><g stroke="null" fill="#60daff"><path d="M455.743 352.73a7.074 7.074 0 01-.025-14.145h.15a7.07 7.07 0 017.069 7.048 7.07 7.07 0 01-7.044 7.097h-.15zm0 0M411.026 352.73a7.074 7.074 0 01-.029-14.145h.154a7.07 7.07 0 017.069 7.048 7.072 7.072 0 01-7.044 7.097h-.15zm0 0M159.633 352.73a7.074 7.074 0 01-.025-14.145h.15a7.07 7.07 0 017.069 7.044 7.072 7.072 0 01-7.044 7.101h-.15zm0 0M114.916 352.73a7.074 7.074 0 01-.025-14.145h.15a7.07 7.07 0 017.069 7.048 7.072 7.072 0 01-7.044 7.097h-.15zm0 0M419.65 388.82a7.068 7.068 0 01-7.069-7.045 7.077 7.077 0 017.044-7.101h.15a7.074 7.074 0 01.025 14.145l-.121.004c-.007-.004-.018-.004-.029-.004zm0 0M374.933 388.82a7.068 7.068 0 01-7.069-7.045 7.077 7.077 0 017.044-7.101h.15a7.074 7.074 0 01.025 14.145l-.121.004c-.011-.004-.018-.004-.029-.004zm0 0M123.54 388.82a7.068 7.068 0 01-7.069-7.045 7.075 7.075 0 017.044-7.101h.15a7.074 7.074 0 01.029 14.145l-.125.004c-.01-.004-.018-.004-.029-.004zm0 0M78.823 388.82a7.068 7.068 0 01-7.069-7.045 7.077 7.077 0 017.044-7.101h.125c3.894-.032 7.084 3.143 7.098 7.048a7.072 7.072 0 01-7.044 7.097l-.125.004c-.007-.004-.018-.004-.029-.004zm0 0M383.561 424.912a7.073 7.073 0 01-.029-14.145h.151a7.07 7.07 0 017.072 7.044 7.075 7.075 0 01-7.044 7.1h-.15zm0 0M338.844 424.912a7.07 7.07 0 01-7.073-7.044 7.072 7.072 0 017.044-7.101h.151a7.07 7.07 0 017.072 7.044 7.075 7.075 0 01-7.044 7.1h-.15zm0 0M87.451 424.912a7.073 7.073 0 01-.025-14.145h.15a7.068 7.068 0 017.07 7.044 7.075 7.075 0 01-7.045 7.1h-.15zm0 0M42.734 424.912a7.073 7.073 0 01-.028-14.145h.15a7.07 7.07 0 017.072 7.044 7.075 7.075 0 01-7.044 7.1h-.15zm0 0" stroke-width=".91537"/></g><path stroke="null" fill="#a0ecff" d="M295.067 367.036c0 11.056 8.961 20.017 20.017 20.017 11.052 0 20.013-8.96 20.013-20.017 0-7.255-8.621-21.49-14.546-30.425-2.596-3.911-8.342-3.911-10.938 0-5.925 8.936-14.546 23.17-14.546 30.425zm0 0"/><path stroke="null" fill="#60daff" d="M295.071 367.036c0 11.053 8.953 20.017 20.013 20.017 2.771 0 5.41-.565 7.813-1.584-7.177-3.04-12.208-10.151-12.208-18.433 0-6.343 6.587-18.024 12.2-26.828a253.93 253.93 0 00-2.327-3.582c-2.6-3.923-8.35-3.934-10.949-.015-5.925 8.932-14.542 23.17-14.542 30.425zm0 0"/><path stroke="null" fill="#a0ecff" d="M204.754 367.036c0 11.056 8.96 20.017 20.013 20.017 11.056 0 20.016-8.96 20.016-20.017 0-7.255-8.62-21.49-14.546-30.425-2.599-3.911-8.342-3.911-10.937 0-5.929 8.936-14.546 23.17-14.546 30.425zm0 0"/><path stroke="null" fill="#60daff" d="M204.754 367.036c0 11.053 8.957 20.017 20.013 20.017 2.77 0 5.413-.565 7.816-1.584-7.18-3.04-12.207-10.151-12.207-18.433 0-6.343 6.586-18.024 12.2-26.828a224.963 224.963 0 00-2.331-3.582c-2.6-3.923-8.346-3.934-10.945-.015-5.925 8.932-14.546 23.17-14.546 30.425zm0 0"/><path stroke="null" fill="#a0ecff" d="M249.91 432.768c0 11.052 8.961 20.016 20.014 20.016 11.055 0 20.016-8.964 20.016-20.016 0-7.255-8.62-21.494-14.546-30.426-2.6-3.915-8.342-3.915-10.938 0-5.928 8.932-14.545 23.17-14.545 30.426zm0 0"/><path stroke="null" fill="#60daff" d="M249.91 432.768c0 11.052 8.958 20.016 20.017 20.016 2.768 0 5.41-.565 7.813-1.584-7.176-3.04-12.207-10.151-12.207-18.432 0-6.344 6.586-18.025 12.2-26.829a224.92 224.92 0 00-2.332-3.582c-2.595-3.923-8.345-3.934-10.945-.015-5.924 8.932-14.545 23.17-14.545 30.426zm0 0"/><path stroke="null" fill="#a0ecff" d="M159.593 432.768c0 11.052 8.965 20.016 20.017 20.016s20.016-8.964 20.016-20.016c0-7.255-8.62-21.494-14.545-30.426-2.6-3.915-8.342-3.915-10.942 0-5.925 8.932-14.546 23.17-14.546 30.426zm0 0"/><path stroke="null" fill="#60daff" d="M159.597 432.768c0 11.052 8.957 20.016 20.013 20.016 2.771 0 5.413-.565 7.816-1.584-7.18-3.04-12.207-10.151-12.207-18.432 0-6.344 6.586-18.025 12.2-26.829a224.86 224.86 0 00-2.331-3.582c-2.6-3.923-8.346-3.934-10.945-.015-5.929 8.932-14.546 23.17-14.546 30.426zm0 0"/></g></svg>