<svg width="512" height="512" xmlns="http://www.w3.org/2000/svg"><path fill="none" d="M-1-1h582v402H-1z"/><g><path fill="#f0f5f7" d="M442.691 126.969C438.402 56.129 379.605 0 307.684 0c-58 0-107.47 36.512-126.696 87.805-49.949.601-90.258 41.257-90.258 91.347 0 50.47 40.91 91.383 91.38 91.383h258.074c39.66 0 71.812-32.152 71.812-71.816 0-38.82-30.808-70.426-69.305-71.75zm0 0"/><path fill="#dde9ed" d="M512 198.719c0 39.66-32.156 71.816-71.82 71.816h-5.563c5.207-9.937 8.153-21.258 8.153-33.254 0-38.816-30.805-70.426-69.305-71.754-4.285-70.836-63.09-126.972-135.012-126.972-9.695 0-19.152 1.02-28.266 2.96C234.79 15.93 269.375.005 307.685.005c71.918 0 130.722 56.125 135.011 126.973 38.5 1.312 69.305 32.921 69.305 71.742zm0 0"/><path fill="#f0f5f7" d="M406.887 119.055a7.731 7.731 0 01-7.508-5.926 93.332 93.332 0 00-5.09-15.242 7.732 7.732 0 014.024-10.16c3.921-1.696 8.468.105 10.16 4.023a108.796 108.796 0 015.93 17.77 7.72 7.72 0 01-5.704 9.316 7.82 7.82 0 01-1.812.219zm0 0M381.332 72.406a7.707 7.707 0 01-5.574-2.375c-17.996-18.75-42.172-29.078-68.07-29.078a7.723 7.723 0 01-7.727-7.723 7.724 7.724 0 017.726-7.726c30.149 0 58.282 12.012 79.22 33.828a7.73 7.73 0 01-.227 10.926 7.705 7.705 0 01-5.348 2.148zm0 0M71.05 167.898c3.067-50.644 45.102-90.773 96.52-90.773 41.465 0 76.832 26.102 90.575 62.77 35.71.433 64.53 29.5 64.53 65.308 0 36.082-29.25 65.332-65.331 65.332h-184.5c-28.356 0-51.34-22.988-51.34-51.344 0-27.753 22.023-50.347 49.547-51.293zm0 0"/><path fill="#dde9ed" d="M322.676 205.21c0 35.77-28.762 64.825-64.43 65.31 10.695-11.637 17.215-27.141 17.215-44.176 0-35.809-28.813-64.88-64.531-65.313-13.746-36.664-49.106-62.77-90.578-62.77-4.903 0-9.711.368-14.422 1.071 16.73-13.871 38.207-22.203 61.636-22.203 41.473 0 76.832 26.094 90.579 62.77 35.718.433 64.53 29.492 64.53 65.312zm0 0"/><path fill="#60daff" d="M263.423 315.422h-.035a7.726 7.726 0 01-7.691-7.762l.015-3.027a7.728 7.728 0 017.723-7.692h.04c4.265.024 7.71 3.496 7.687 7.762l-.012 3.027a7.726 7.726 0 01-7.727 7.692zm0 0M263.33 346.227h-.04c-4.265-.024-7.71-3.497-7.687-7.762l.012-3.027a7.729 7.729 0 017.726-7.692h.035a7.726 7.726 0 017.692 7.762l-.016 3.027a7.725 7.725 0 01-7.722 7.692zm0 0M280.334 329.367h-.04l-3.03-.015a7.729 7.729 0 01-7.688-7.766 7.722 7.722 0 017.722-7.688h.04l3.03.016a7.729 7.729 0 017.692 7.762 7.729 7.729 0 01-7.726 7.691zm0 0M249.466 329.27h-.039l-3.031-.016a7.723 7.723 0 01-7.687-7.762 7.725 7.725 0 017.722-7.691h.04l3.03.015a7.73 7.73 0 017.692 7.766 7.728 7.728 0 01-7.727 7.688zm0 0M79.328 314.196h-.035a7.726 7.726 0 01-7.691-7.761l.015-3.028a7.728 7.728 0 017.723-7.691h.039c4.266.023 7.71 3.496 7.687 7.762l-.011 3.027a7.726 7.726 0 01-7.727 7.691zm0 0M79.234 345h-.039c-4.265-.022-7.71-3.495-7.687-7.76l.012-3.028a7.729 7.729 0 017.726-7.692h.035a7.726 7.726 0 017.692 7.762l-.016 3.028a7.725 7.725 0 01-7.723 7.69zm0 0M96.238 328.142H96.2l-3.031-.016a7.729 7.729 0 01-7.688-7.766 7.722 7.722 0 017.723-7.687h.04l3.03.015a7.729 7.729 0 017.692 7.762 7.729 7.729 0 01-7.727 7.692zm0 0M65.371 328.044h-.039l-3.031-.016a7.723 7.723 0 01-7.688-7.761 7.725 7.725 0 017.723-7.692h.039l3.031.016a7.73 7.73 0 017.692 7.765 7.728 7.728 0 01-7.727 7.688zm0 0M435.326 315.948h-.035a7.726 7.726 0 01-7.691-7.762l.015-3.027a7.728 7.728 0 017.723-7.691h.039c4.266.023 7.71 3.496 7.687 7.761l-.011 3.028a7.726 7.726 0 01-7.727 7.691zm0 0M435.232 346.753h-.039c-4.265-.024-7.71-3.496-7.687-7.762l.012-3.027a7.729 7.729 0 017.726-7.692h.035a7.726 7.726 0 017.692 7.762l-.016 3.027a7.725 7.725 0 01-7.723 7.692zm0 0M452.236 329.893h-.039l-3.031-.015a7.729 7.729 0 01-7.688-7.766 7.722 7.722 0 017.723-7.687h.04l3.03.015a7.729 7.729 0 017.692 7.762 7.729 7.729 0 01-7.727 7.691zm0 0M421.37 329.796h-.04l-3.031-.016a7.723 7.723 0 01-7.688-7.762 7.725 7.725 0 017.723-7.69h.039l3.031.015a7.73 7.73 0 017.692 7.765 7.728 7.728 0 01-7.727 7.688zm0 0M171.77 378.895h-.035a7.726 7.726 0 01-7.691-7.761l.015-3.028a7.728 7.728 0 017.723-7.691h.04c4.265.023 7.71 3.496 7.687 7.762l-.012 3.027a7.726 7.726 0 01-7.727 7.691zm0 0M171.677 409.7h-.04c-4.265-.023-7.71-3.496-7.687-7.762l.012-3.027a7.729 7.729 0 017.726-7.691h.036a7.726 7.726 0 017.691 7.761l-.016 3.028a7.725 7.725 0 01-7.722 7.691zm0 0M188.68 392.84h-.038l-3.032-.015a7.729 7.729 0 01-7.687-7.766 7.722 7.722 0 017.722-7.687h.04l3.03.015a7.729 7.729 0 017.692 7.762 7.729 7.729 0 01-7.726 7.692zm0 0M157.813 392.743h-.039l-3.03-.016a7.723 7.723 0 01-7.688-7.761 7.725 7.725 0 017.722-7.692h.04l3.03.016a7.73 7.73 0 017.692 7.765 7.728 7.728 0 01-7.727 7.688zm0 0M353.676 376.318h-.035a7.726 7.726 0 01-7.692-7.761l.016-3.028a7.728 7.728 0 017.722-7.691h.04c4.265.023 7.71 3.496 7.687 7.762l-.012 3.027a7.726 7.726 0 01-7.726 7.691zm0 0M353.582 407.123h-.039c-4.266-.023-7.711-3.496-7.688-7.762l.012-3.027a7.729 7.729 0 017.727-7.691h.035a7.726 7.726 0 017.691 7.761l-.015 3.028a7.725 7.725 0 01-7.723 7.691zm0 0M370.586 390.264h-.04l-3.03-.016a7.729 7.729 0 01-7.688-7.766 7.722 7.722 0 017.723-7.687h.039l3.031.016a7.729 7.729 0 017.691 7.761 7.729 7.729 0 01-7.726 7.692zm0 0M339.719 390.166h-.04l-3.03-.016a7.723 7.723 0 01-7.688-7.761 7.725 7.725 0 017.723-7.692h.039l3.03.016a7.73 7.73 0 017.692 7.765 7.728 7.728 0 01-7.726 7.688zm0 0M78.97 444.022h-.036a7.726 7.726 0 01-7.691-7.762l.015-3.027a7.728 7.728 0 017.723-7.692h.039c4.266.024 7.71 3.496 7.687 7.762l-.011 3.027a7.726 7.726 0 01-7.727 7.692zm0 0M78.875 474.827h-.039c-4.265-.024-7.71-3.497-7.687-7.762l.012-3.028a7.729 7.729 0 017.726-7.691h.035a7.726 7.726 0 017.692 7.762l-.016 3.027a7.725 7.725 0 01-7.723 7.692zm0 0M95.88 457.967h-.04l-3.031-.015a7.729 7.729 0 01-7.688-7.766 7.722 7.722 0 017.723-7.688h.04l3.03.016a7.729 7.729 0 017.692 7.762 7.729 7.729 0 01-7.727 7.691zm0 0M65.012 457.87h-.039l-3.031-.016a7.723 7.723 0 01-7.688-7.762 7.725 7.725 0 017.723-7.691h.039l3.031.015a7.73 7.73 0 017.692 7.766 7.728 7.728 0 01-7.727 7.687zm0 0M261.07 443.655h-.035a7.726 7.726 0 01-7.691-7.762l.016-3.027a7.728 7.728 0 017.722-7.692h.04c4.265.024 7.71 3.496 7.687 7.762l-.012 3.027a7.726 7.726 0 01-7.727 7.692zm0 0M260.977 474.46h-.04c-4.265-.024-7.71-3.497-7.687-7.762l.012-3.028a7.729 7.729 0 017.726-7.691h.036a7.726 7.726 0 017.691 7.762l-.016 3.027a7.725 7.725 0 01-7.722 7.691zm0 0M277.98 457.6h-.038l-3.032-.016a7.729 7.729 0 01-7.687-7.765 7.722 7.722 0 017.722-7.688h.04l3.03.016a7.729 7.729 0 017.692 7.762 7.729 7.729 0 01-7.726 7.691zm0 0M247.113 457.502h-.039l-3.03-.015a7.723 7.723 0 01-7.688-7.762 7.725 7.725 0 017.722-7.691h.04l3.03.015a7.73 7.73 0 017.692 7.766 7.728 7.728 0 01-7.727 7.687zm0 0M436.361 446.008h-.035a7.726 7.726 0 01-7.691-7.762l.015-3.027a7.728 7.728 0 017.723-7.692h.04c4.265.024 7.71 3.496 7.687 7.762l-.012 3.027a7.726 7.726 0 01-7.727 7.692zm0 0M436.268 476.812h-.04c-4.265-.023-7.71-3.496-7.687-7.761l.012-3.028a7.729 7.729 0 017.726-7.691h.035a7.726 7.726 0 017.692 7.762l-.016 3.027a7.725 7.725 0 01-7.722 7.691zm0 0M453.271 459.953h-.039l-3.03-.016a7.729 7.729 0 01-7.688-7.765 7.722 7.722 0 017.722-7.688h.04l3.03.016a7.729 7.729 0 017.692 7.762 7.729 7.729 0 01-7.727 7.691zm0 0M422.404 459.855h-.039l-3.031-.015a7.723 7.723 0 01-7.688-7.762 7.725 7.725 0 017.723-7.691h.04l3.03.015a7.73 7.73 0 017.692 7.766 7.728 7.728 0 01-7.727 7.687zm0 0"/></g></svg>