<svg width="511" height="511.999" xmlns="http://www.w3.org/2000/svg"><path fill="none" d="M-1-1h582v402H-1z"/><g><g stroke="null"><path fill="#f0f5f7" d="M77.72 45.494c0 72.714 125.544 136.441 36.458 269.675-89.086 133.235 125.105 186.329 125.105 186.329s-119.757-94.7 30.086-176.329C469.143 216.341 424.96 45.494 424.96 45.494H77.721zm0 0"/><path fill="#dde9ed" d="M269.37 325.166C119.525 406.798 239.286 501.5 239.286 501.5s-46.113-11.433-86.648-36.992c-20.79-35.066-29.527-89.625 61.726-139.343C414.151 216.337 369.963 45.494 369.963 45.494h54.992S469.14 216.337 269.37 325.166zm0 0"/><path fill="#c4e1e8" d="M424.96 45.494c0-19.328-77.731-34.996-173.618-34.996S77.721 26.166 77.721 45.494 155.455 80.49 251.342 80.49s173.617-15.668 173.617-34.996zm0 0"/><path fill="#dde9ed" d="M401.725 62.994c-30.02 10.457-86.121 17.492-150.387 17.492-64.262 0-120.363-7.035-150.383-17.492 30.016-10.465 86.121-17.5 150.383-17.5 64.266 0 120.367 7.035 150.387 17.5zm0 0"/><path fill="#c4e1e8" d="M280.483 217.466c-46.871 0-91.012-3.695-124.293-10.402-16.567-3.34-29.688-7.285-39.004-11.723-11.977-5.707-18.047-12.636-18.047-20.597 0-14.008 18.781-21.18 24.953-23.536a7.734 7.734 0 019.977 4.461 7.728 7.728 0 01-4.465 9.977c-12.719 4.855-14.754 8.562-14.992 9.113.8 2.477 10.937 10.676 47.386 17.7 31.98 6.164 74.059 9.554 118.485 9.554 24.074 0 47.359-.98 69.207-2.922 4.25-.367 8 2.766 8.379 7.016.375 4.25-2.766 8-7.016 8.379-22.297 1.976-46.043 2.98-70.57 2.98zm0 0M249.795 309.26c-37.351 0-72.543-2.946-99.09-8.298-31.8-6.41-46.61-15.066-46.61-27.242 0-13.48 18.548-20.113 32.5-23.93a7.726 7.726 0 114.078 14.902c-14.753 4.04-19.417 7.657-20.753 9.052 2.324 2.484 12.102 8.12 38.438 12.953 24.992 4.582 57.468 7.11 91.437 7.11s66.442-2.524 91.434-7.11c26.336-4.832 36.113-10.469 38.437-12.953-.812-.848-2.87-2.52-7.73-4.633l-12.586-4.617a7.725 7.725 0 01-4.594-9.914 7.732 7.732 0 019.914-4.594l12.793 4.695c.129.047.262.098.39.156 4.364 1.875 17.637 7.59 17.637 18.883 0 12.172-14.808 20.828-46.609 27.238-26.547 5.356-61.738 8.301-99.086 8.301zm0 0M328.358 166.154a7.725 7.725 0 01-7.723-7.727 7.723 7.723 0 017.723-7.726c33.097 0 64.543-2.805 88.546-7.895 26.41-5.601 34.536-12.082 35.536-14.2-.528-.94-4.348-6.194-25.325-11.812a7.73 7.73 0 01-5.468-9.46 7.733 7.733 0 019.465-5.465c24.789 6.636 36.84 15.375 36.84 26.714 0 12.473-14.606 21.84-44.645 28.637-25.45 5.762-59.168 8.934-94.95 8.934zm124.156-37.403h.012-.012zm0 0M161.217 416.197c-25.23 0-49.04-2.438-67.04-6.864-22.128-5.437-32.886-13.136-32.886-23.527 0-13.941 20.102-19.902 26.707-21.863a7.723 7.723 0 019.602 5.21 7.726 7.726 0 01-5.207 9.606c-9.594 2.844-13.832 5.64-15.25 7.055 1.867 1.898 8.414 5.879 24.515 9.394 16.348 3.567 37.5 5.536 59.559 5.536 22.059 0 43.21-1.97 59.559-5.536 16.113-3.519 22.656-7.503 24.52-9.398-2.071-2.078-9.915-6.715-29.337-10.387a7.725 7.725 0 01-6.156-9.027 7.726 7.726 0 019.027-6.156c28.473 5.386 42.317 13.746 42.317 25.566 0 10.39-10.758 18.09-32.887 23.527-18.004 4.426-41.813 6.864-67.043 6.864zm84.598-29.73h.011-.011zm0 0"/><path fill="#c4e1e8" d="M232.514 352.064c-16.563 0-33.047-1.148-47.66-3.324a7.724 7.724 0 01-6.508-8.778c.629-4.222 4.562-7.136 8.781-6.504 13.875 2.063 29.57 3.153 45.387 3.153 26.078 0 50.496-2.848 68.758-8.024 19.511-5.53 23.734-11.48 23.734-12.656 0-.906-2.672-5.277-15.758-10.082a7.726 7.726 0 01-4.586-9.918 7.727 7.727 0 019.914-4.59c17.176 6.313 25.883 14.586 25.883 24.59 0 24.828-55.953 36.133-107.945 36.133zm0 0"/><path fill="#dde9ed" d="M409.299 318.138a7.724 7.724 0 01-7.723-7.648 7.726 7.726 0 017.645-7.805h.082c4.23 0 7.73 3.41 7.773 7.648.043 4.27-3.332 7.762-7.597 7.805h-.18zm0 0M87.002 203.45h-.101a7.729 7.729 0 01-7.727-7.726 7.729 7.729 0 017.727-7.726c4.27 0 7.777 3.46 7.777 7.726s-3.41 7.727-7.676 7.727zm0 0"/><g fill="#dde9ed"><path d="M50.772 410.15c-4.23 0-7.684-3.41-7.723-7.649a7.723 7.723 0 017.645-7.804h.082c4.23 0 7.73 3.406 7.773 7.648.043 4.266-3.332 7.758-7.598 7.801l-.101.004h-.078zm0 0M318.873 141.607a7.727 7.727 0 01-.078-15.453h.082c4.23 0 7.73 3.406 7.774 7.648.043 4.266-3.332 7.758-7.598 7.801l-.102.004h-.078zm0 0M180.108 251.47a7.727 7.727 0 01-.078-15.453h.078c4.234 0 7.734 3.406 7.777 7.645.043 4.27-3.332 7.761-7.598 7.804l-.101.004h-.078zm0 0M197.283 269.916h-.101c-4.266 0-7.727-3.461-7.727-7.727s3.461-7.727 7.727-7.727c4.27 0 7.777 3.461 7.777 7.727s-3.41 7.727-7.676 7.727zm0 0M175.647 389.45h-.098a7.725 7.725 0 110-15.45c4.266.001 7.777 3.458 7.777 7.724 0 4.27-3.41 7.727-7.68 7.727zm0 0"/></g></g></g></svg>