<svg width="500" height="500" xmlns="http://www.w3.org/2000/svg"><path fill="none" d="M-1-1h502v502H-1z"/><g><g fill="#dde9ed"><path d="M282.758 213.523H37.628c-6.64 0-12.023-5.382-12.023-12.023 0-6.645 5.383-12.027 12.024-12.027h245.129c17.062 0 30.941-13.88 30.941-30.938 0-17.062-13.883-30.941-30.941-30.941s-30.938 13.879-30.938 30.941c0 6.64-5.386 12.024-12.027 12.024s-12.024-5.383-12.024-12.024c0-30.32 24.668-54.988 54.989-54.988 30.324 0 54.992 24.668 54.992 54.988s-24.672 54.988-54.992 54.988zm0 0M249.2 286.477H108.18c-6.645 0-12.028 5.382-12.028 12.023s5.387 12.027 12.028 12.027H249.2c17.058 0 30.937 13.88 30.937 30.938s-13.88 30.937-30.938 30.937c-17.062 0-30.941-13.879-30.941-30.937 0-6.64-5.383-12.024-12.024-12.024s-12.027 5.383-12.027 12.024c0 30.32 24.672 54.988 54.992 54.988s54.988-24.668 54.988-54.988-24.668-54.988-54.988-54.988zm0 0"/><path d="M377.34 238.7H74.492c-6.64 0-12.023 5.386-12.023 12.027s5.383 12.023 12.023 12.023H377.34c17.062 0 30.941 13.879 30.941 30.937 0 17.063-13.879 30.942-30.941 30.942-17.059 0-30.938-13.879-30.938-30.942 0-6.64-5.383-12.023-12.023-12.023s-12.027 5.383-12.027 12.023c0 30.325 24.667 54.993 54.992 54.993 30.32 0 54.988-24.668 54.988-54.993 0-30.32-24.668-54.988-54.992-54.988zm0 0M457.539 300.82h-.145a7.726 7.726 0 01-7.69-7.761c.019-4.27 3.487-7.7 7.765-7.692l.105.004a7.72 7.72 0 017.688 7.762 7.725 7.725 0 01-7.723 7.687zm0 0M466.672 327.04h-.145a7.73 7.73 0 01-7.691-7.767 7.728 7.728 0 017.726-7.687h.145a7.725 7.725 0 017.687 7.762 7.723 7.723 0 01-7.722 7.691zm0 0M144.957 349.191H144.816a7.726 7.726 0 01.036-15.453h.14a7.727 7.727 0 017.692 7.766 7.725 7.725 0 01-7.727 7.687zm0 0M88.125 154.574H87.984a7.726 7.726 0 01-7.691-7.762c.023-4.269 3.527-7.69 7.762-7.69h.109a7.729 7.729 0 017.688 7.765 7.725 7.725 0 01-7.727 7.687zm0 0"/></g></g></svg>