<svg width="400" height="620" xmlns="http://www.w3.org/2000/svg"><path fill="none" d="M-1-1h402v622H-1z"/><g><path stroke="null" fill="#fab03c" d="M269.598 174.07c0 54.888-44.491 99.38-99.378 99.38-30.326 0-57.466-13.577-75.683-34.979-14.79-17.347-23.696-39.835-23.696-64.396 0-54.887 44.491-99.379 99.379-99.379 50.035 0 91.426 36.968 98.356 85.086a99.936 99.936 0 011.022 14.289zm0 0"/><path stroke="null" fill="#fd8f3e" d="M269.598 174.07c0 54.888-44.491 99.38-99.378 99.38-30.326 0-57.466-13.577-75.683-34.979a99.892 99.892 0 01-1.018-14.289c0-54.891 44.5-99.379 99.379-99.379 30.321 0 57.466 13.577 75.678 34.979a99.936 99.936 0 011.022 14.289zm0 0"/><g stroke="null" fill="#f8e98e"><path d="M170.22 48.302a8.266 8.266 0 01-8.267-8.266V18.63c0-4.564 3.703-8.262 8.267-8.262s8.262 3.698 8.262 8.262v21.406c0 4.564-3.699 8.266-8.262 8.266zm0 0M103.21 66.26a8.266 8.266 0 01-7.167-4.135L85.342 43.59a8.265 8.265 0 0114.314-8.266l10.701 18.539a8.261 8.261 0 01-3.024 11.286 8.238 8.238 0 01-4.122 1.111zm0 0M54.134 115.32c-1.4 0-2.82-.36-4.122-1.112l-18.54-10.7a8.265 8.265 0 01-3.023-11.29 8.26 8.26 0 0111.286-3.025l18.539 10.7a8.266 8.266 0 013.024 11.291 8.255 8.255 0 01-7.164 4.136zm0 0M36.185 182.333H14.779c-4.564 0-8.262-3.699-8.262-8.262s3.698-8.267 8.262-8.267h21.406c4.563 0 8.262 3.703 8.262 8.267s-3.699 8.262-8.262 8.262zm0 0M286.3 115.32a8.266 8.266 0 01-4.14-15.426l18.54-10.701a8.261 8.261 0 0111.286 3.024 8.265 8.265 0 01-3.024 11.29l-18.539 10.701a8.215 8.215 0 01-4.122 1.112zm0 0M35.612 260.055a8.264 8.264 0 01-7.163-4.135c-2.282-3.953-.93-9.009 3.024-11.286l18.539-10.705c3.948-2.278 9.004-.925 11.286 3.028s.929 9.004-3.024 11.286l-18.54 10.701a8.172 8.172 0 01-4.122 1.111zm0 0M237.228 66.26a8.242 8.242 0 01-4.126-1.111 8.261 8.261 0 01-3.024-11.286l10.7-18.54a8.265 8.265 0 0114.315 8.267l-10.701 18.535a8.264 8.264 0 01-7.164 4.135zm0 0M92.493 316.949a8.266 8.266 0 01-7.15-12.397l10.7-18.54a8.265 8.265 0 0114.314 8.267l-10.7 18.534a8.264 8.264 0 01-7.164 4.136zm0 0" stroke-width="1.08578"/></g><path stroke="null" fill="#efa66f" d="M363.994 271.6c0 11.405-9.25 20.651-20.656 20.651-11.405 0-20.655-9.246-20.655-20.65 0-11.41 9.25-20.656 20.655-20.656 11.405 0 20.656 9.246 20.656 20.655zm0 0M198.87 271.6c0 11.405-9.246 20.651-20.651 20.651-11.41 0-20.656-9.246-20.656-20.65 0-11.41 9.247-20.656 20.656-20.656 11.405 0 20.65 9.246 20.65 20.655zm0 0"/><path stroke="null" fill="#fbdbb7" d="M184.835 199.497v92.466c0 41.938 34.003 75.94 75.941 75.94 41.943 0 75.941-34.002 75.941-75.94v-92.466H184.835zm0 0"/><path stroke="null" fill="#f4bc8e" d="M336.717 199.497v92.462c0 20.969-8.5 39.966-22.245 53.703-13.738 13.738-32.726 22.238-53.696 22.238-4.08 0-8.084-.318-11.998-.95 16.163-2.558 30.626-10.23 41.696-21.288 13.738-13.737 22.238-32.734 22.238-53.703v-92.462h24.005zm0 0"/><path stroke="null" fill="#82807f" d="M260.78 139.762c-48.635 0-88.058 39.424-88.058 88.06v18.97c0 6.68 5.883 11.821 12.503 10.918 22.259-3.029 68.367-11.846 89.353-34.508 7.812 12.826 25.015 29.198 62.36 32.082 6.413.496 11.897-4.56 11.897-10.99v-16.473c0-48.635-39.423-88.059-88.054-88.059zm0 0"/><path stroke="null" fill="#6d6d6d" d="M348.835 227.825v16.465c0 6.439-5.501 11.486-11.922 10.99-5.014-.39-9.666-1.023-13.984-1.858v-25.597c0-44.233-32.608-80.848-75.11-87.121a88.217 88.217 0 0112.962-.946c48.627 0 88.054 39.428 88.054 88.067zm0 0"/><path stroke="null" fill="#7c3c2f" d="M225.136 279.862c-4.568 0-8.317-3.698-8.317-8.262s3.652-8.266 8.22-8.266h.097c4.564 0 8.263 3.702 8.263 8.266s-3.699 8.262-8.263 8.262zm0 0M296.518 279.862c-4.564 0-8.313-3.698-8.313-8.262s3.652-8.266 8.216-8.266h.097c4.568 0 8.266 3.702 8.266 8.266s-3.702 8.262-8.266 8.262zm0 0"/><path stroke="null" fill="#fd8f3e" d="M268.737 327.819h-15.913a8.262 8.262 0 01-8.267-8.262V271.6c0-4.564 3.703-8.266 8.267-8.266s8.262 3.702 8.262 8.266v39.69h7.651c4.564 0 8.262 3.703 8.262 8.267s-3.702 8.262-8.262 8.262zm0 0"/><path stroke="null" fill="#a0ecff" d="M357.602 198.106c0 11.532-9.348 20.88-20.88 20.88-11.532 0-20.88-9.348-20.88-20.88 0-7.566 8.991-22.424 15.17-31.738 2.711-4.084 8.704-4.084 11.414 0 6.184 9.314 15.176 24.172 15.176 31.738zm0 0"/><path stroke="null" fill="#60daff" d="M357.598 198.106c0 11.528-9.344 20.88-20.88 20.88-2.889 0-5.646-.59-8.152-1.65 7.49-3.172 12.736-10.59 12.736-19.23 0-6.616-6.87-18.802-12.728-27.988.84-1.32 1.658-2.57 2.43-3.741 2.71-4.089 8.708-4.102 11.422-.013 6.18 9.318 15.172 24.171 15.172 31.742zm0 0"/><path stroke="null" fill="#a0ecff" d="M206.432 315.812c0 11.532-9.348 20.88-20.88 20.88s-20.88-9.348-20.88-20.88c0-7.567 8.992-22.424 15.175-31.742 2.71-4.08 8.704-4.08 11.414 0 6.18 9.318 15.171 24.175 15.171 31.742zm0 0"/><path stroke="null" fill="#60daff" d="M206.432 315.812c0 11.528-9.344 20.88-20.88 20.88a20.87 20.87 0 01-8.152-1.65c7.486-3.172 12.733-10.59 12.733-19.23 0-6.617-6.871-18.802-12.724-27.989.835-1.319 1.654-2.574 2.43-3.74 2.71-4.09 8.707-4.102 11.418-.013 6.183 9.318 15.175 24.171 15.175 31.742zm0 0"/><path fill="#FF8040" d="M387.515 486.238v68.687c0 5.606-4.543 10.148-10.149 10.148H139.261c-5.606 0-10.149-4.542-10.149-10.148v-67.332c0-71.598 57.657-130.586 129.258-130.559 35.66.016 67.934 14.477 91.3 37.844 23.384 23.387 37.845 55.688 37.845 91.36zm0 0"/><path fill="#C24712" d="M196.815 461.05v104.023H181.59V461.05c0-4.203 3.41-7.613 7.613-7.613s7.613 3.41 7.613 7.613zm0 0"/><path class="active-path" fill="#A0ECFF" d="M387.522 513.062v41.863c0 5.606-4.546 10.148-10.152 10.148H139.265c-5.606 0-10.149-4.542-10.149-10.148v-41.863h258.406zm0 0"/><path fill="#60daff" d="M181.589 513.062h15.226v52.011H181.59v-52.011zm0 0"/><path fill="#218D47" d="M287.812 609.632a7.613 7.613 0 01-7.614-7.613v-29.551c0-4.207 3.41-7.613 7.614-7.613s7.609 3.406 7.609 7.613v29.55a7.61 7.61 0 01-7.61 7.614zm0 0M307.784 609.632a7.613 7.613 0 01-7.613-7.613v-29.551c0-4.207 3.41-7.613 7.613-7.613s7.613 3.406 7.613 7.613v29.55a7.613 7.613 0 01-7.613 7.614zm0 0M327.757 609.632a7.61 7.61 0 01-7.61-7.613v-29.551a7.61 7.61 0 017.61-7.613 7.61 7.61 0 017.613 7.613v29.55a7.61 7.61 0 01-7.613 7.614zm0 0M347.733 609.632a7.613 7.613 0 01-7.613-7.613v-29.551c0-4.207 3.41-7.613 7.613-7.613s7.61 3.406 7.61 7.613v29.55a7.61 7.61 0 01-7.61 7.614zm0 0"/><path fill="#2DBC8D" d="M280.194 378.988h75.149V572.46h-75.149V378.988zm0 0"/><path fill="#f0f5f7" d="M280.194 491.015h75.149v44.094h-75.149v-44.094zm0 0"/><path fill="#2DBC8D" d="M342.081 398.007H174.554c-15.79 0-28.59-12.8-28.59-28.59 0-15.789 12.8-28.59 28.59-28.59H342.08c15.79 0 28.59 12.801 28.59 28.59 0 15.79-12.8 28.59-28.59 28.59zm0 0"/><path fill="#218D47" d="M370.675 369.417c0 7.895-3.2 15.04-8.375 20.215s-12.32 8.375-20.215 8.375H174.55c-15.781 0-28.59-12.797-28.59-28.59 0-3.824.754-7.469 2.121-10.808 4.262 10.422 14.516 17.78 26.469 17.78h167.535c7.894 0 15.039-3.198 20.215-8.374a28.445 28.445 0 006.254-9.406 28.448 28.448 0 012.12 10.808zm0 0"/><path stroke="null" fill="#a0ecff" d="M393.484 410.64c0 11.532-9.353 20.88-20.885 20.88s-20.88-9.348-20.88-20.88c0-7.571 8.996-22.424 15.176-31.743 2.71-4.084 8.703-4.084 11.413 0 6.18 9.319 15.176 24.172 15.176 31.743zm0 0"/><path stroke="null" fill="#60daff" d="M393.48 410.64c0 11.528-9.344 20.88-20.88 20.88a20.87 20.87 0 01-8.153-1.65c7.486-3.173 12.737-10.59 12.737-19.23 0-6.617-6.87-18.806-12.728-27.993a212.35 212.35 0 012.43-3.737c2.71-4.088 8.708-4.101 11.418-.013 6.184 9.319 15.175 24.172 15.175 31.743zm0 0"/></g></svg>