<svg width="512" height="512" xmlns="http://www.w3.org/2000/svg"><path fill="none" d="M-1-1h582v402H-1z"/><g><path fill="#383838" d="M364.21 354.906c44.274-44.437 24.47-103.914-1.726-147.84H152.777c-26.191 43.926-45.996 103.403-1.726 147.84h213.16zm0 0"/><path fill="#efa66f" d="M366.387 201.5c0 12.02-9.746 21.762-21.766 21.762-12.02 0-21.762-9.742-21.762-21.762s9.743-21.762 21.762-21.762c12.02 0 21.766 9.742 21.766 21.762zm0 0M192.406 201.5c0 12.02-9.746 21.762-21.765 21.762s-21.762-9.742-21.762-21.762 9.742-21.762 21.762-21.762 21.765 9.742 21.765 21.762zm0 0"/><path fill="#F773A0" d="M394.36 428.57v73.274c0 5.605-4.548 10.152-10.153 10.152H131.051c-5.606 0-10.149-4.547-10.149-10.152V428.57c0-49.523 26.344-92.91 65.785-116.898 20.672-12.574 44.97-19.82 70.95-19.82 25.734 0 49.808 7.101 70.36 19.472a137.438 137.438 0 0126.315 20.57c24.743 24.743 40.047 58.926 40.047 96.676zm0 0"/><path fill="#53AFE6" d="M120.902 437.727h73.668v39.476h-73.668v-39.476zm0 0"/><path fill="#AC295C" d="M394.355 428.566v73.286c0 5.605-4.542 10.148-10.148 10.148h-26.144v-83.434c0-37.746-15.317-71.925-40.055-96.668a137.157 137.157 0 00-26.313-20.574 135.763 135.763 0 00-52.187-18.285 137.41 137.41 0 0118.125-1.195c25.738 0 49.808 7.117 70.37 19.48a137.494 137.494 0 0126.31 20.574c24.742 24.743 40.042 58.922 40.042 96.668zm0 0"/><path fill="#AC295C" d="M314.95 331.43H200.312c-21.739 0-39.36-17.621-39.36-39.36v-19.164c0-6.27 5.082-11.351 11.356-11.351h170.648c6.27 0 11.352 5.082 11.352 11.351v19.164c0 21.739-17.621 39.36-39.36 39.36zm0 0"/><path fill="#fbdbb7" d="M177.613 125.527v97.426c0 44.192 35.828 80.02 80.02 80.02 44.191 0 80.015-35.828 80.015-80.02v-97.426H177.613zm0 0"/><path fill="#f4bc8e" d="M337.648 125.527v97.426c0 22.094-8.957 42.11-23.441 56.582-14.477 14.477-34.48 23.434-56.574 23.434-4.301 0-8.52-.336-12.645-1 17.035-2.696 32.274-10.781 43.934-22.434 14.476-14.476 23.433-34.488 23.433-56.582v-97.426h25.293zm0 0"/><path fill="#AC295C" d="M194.566 401.926v110.07h-15.218v-110.07c0-4.203 3.41-7.614 7.609-7.614s7.61 3.41 7.61 7.614zm0 0"/><path class="active-path" fill="#5475A9" d="M179.348 437.723h15.218v39.48h-15.218v-39.48zm0 0"/><path fill="#AC295C" d="M335.91 401.922v110.07h-15.223v-110.07a7.615 7.615 0 017.614-7.613c4.21 0 7.61 3.41 7.61 7.613zm0 0"/><path fill="#383838" d="M257.633 42.2c-58.801 0-106.465 47.663-106.465 106.464v20.05c0 4.833 3.406 9.024 8.148 9.954 63.856 12.504 88.758-15.879 98.317-36.621 9.555 20.742 34.457 49.121 98.312 36.621 4.746-.93 8.149-5.121 8.149-9.953v-20.05c.004-58.802-47.664-106.466-106.461-106.466zm0 0"/><path fill="#0C0C0C" d="M364.102 149.71v19.005c0 4.836-3.41 9.023-8.153 9.953-6.656 1.305-12.89 2.168-18.726 2.633V156.93c0-55.57-38.641-102.094-90.516-114.192 3.832-.383 7.73-.57 11.68-.543 58.676.403 105.715 48.84 105.715 107.516zm0 0M220.078 209.113h-.074l-.106-.004a7.606 7.606 0 01-7.535-7.683 7.612 7.612 0 017.61-7.54h.074l.101.005a7.61 7.61 0 017.54 7.683 7.611 7.611 0 01-7.61 7.54zm0 0M295.293 209.113h-.074l-.106-.004a7.606 7.606 0 01-7.535-7.683 7.614 7.614 0 017.61-7.54h.074l.101.005a7.612 7.612 0 01-.07 15.222zm0 0"/><path fill="#FD8F3E" d="M266.016 259.64H249.25a7.61 7.61 0 01-7.613-7.609V201.5a7.612 7.612 0 1115.223 0v42.922h9.156a7.61 7.61 0 110 15.219zm0 0"/><g fill="#53AFE6"><path d="M266.078 374.516h-.183c-4.204-.036-7.586-3.473-7.551-7.676s3.465-7.563 7.676-7.547h.12a7.612 7.612 0 01-.062 15.223zm0 0M266.074 422.098h-.117c-4.207 0-7.613-3.41-7.613-7.614s3.406-7.609 7.613-7.609h.117a7.612 7.612 0 110 15.223zm0 0M266.074 469.676h-.117a7.61 7.61 0 01-7.613-7.614 7.61 7.61 0 017.613-7.609h.117a7.61 7.61 0 017.614 7.61 7.61 7.61 0 01-7.614 7.613zm0 0"/></g><path fill="#60daff" d="M417.293 117.816a7.602 7.602 0 01-5.383-2.226 7.613 7.613 0 010-10.766l79.79-79.789c2.976-2.972 7.792-2.972 10.765 0s2.973 7.79 0 10.762l-79.79 79.793a7.595 7.595 0 01-5.382 2.226zm0 0"/><path fill="#38aaff" d="M434.516 146.926a7.613 7.613 0 01-5.383-12.996l29.105-29.106a7.613 7.613 0 0110.766 10.766l-29.106 29.105a7.593 7.593 0 01-5.382 2.23zm0 0"/><path fill="#a0ecff" d="M7.613 190.379a7.577 7.577 0 01-5.383-2.23 7.613 7.613 0 010-10.766L145.785 33.828a7.613 7.613 0 0110.766 10.766L12.992 188.148a7.574 7.574 0 01-5.379 2.23zm0 0"/><path fill="#38aaff" d="M97.578 153.766a7.606 7.606 0 01-5.383-2.23c-2.968-2.974-2.972-7.794 0-10.766l13.664-13.665a7.613 7.613 0 0110.766 10.766l-13.664 13.664a7.593 7.593 0 01-5.383 2.23zm0 0"/><path fill="#60daff" d="M79.39 77.922a7.577 7.577 0 01-5.382-2.23 7.608 7.608 0 010-10.762l62.699-62.703a7.62 7.62 0 0110.766 0 7.613 7.613 0 010 10.765l-62.7 62.7a7.59 7.59 0 01-5.382 2.23zm0 0M299.305 110.219a7.592 7.592 0 01-5.387-2.23 7.62 7.62 0 010-10.766l70.066-70.063a7.613 7.613 0 0110.766 10.766l-70.066 70.062a7.59 7.59 0 01-5.38 2.23zm0 0M74.54 229.418a7.583 7.583 0 01-5.384-2.23 7.608 7.608 0 010-10.762l14.742-14.742a7.612 7.612 0 0110.762 0 7.606 7.606 0 010 10.765l-14.738 14.738a7.59 7.59 0 01-5.383 2.231zm0 0"/><path fill="#a0ecff" d="M436.398 236.336a7.589 7.589 0 01-5.382-2.227 7.613 7.613 0 010-10.765l27.222-27.227a7.62 7.62 0 0110.766 0 7.613 7.613 0 010 10.766l-27.223 27.226a7.595 7.595 0 01-5.383 2.227zm0 0"/><path fill="#383838" d="M191.152 137.695h132.303v43.902H191.152z"/></g></svg>